<svg class="img-fluid" id="outputsvg" xmlns="http://www.w3.org/2000/svg" style="transform: none; transform-origin: 50% 50%; cursor: move; max-height: 331.6px;"
     width="1300" height="1300" viewBox="0 0 13000 13000">

    <g id="lTkwBtrJWseCQENSyByoFi">
        <g>
            <path id="pAcoS7yhD"
                  d="M5698 11490 c-46 -14 -85 -48 -102 -90 -22 -54 -20 -145 3 -195 19 -41 577 -603 751 -756 264 -234 469 -366 945 -609 398 -204 534 -285 755 -454 141 -107 1695 -1655 1735 -1727 38 -70 57 -174 45 -240 -17 -91 -55 -157 -133 -233 -89 -87 -168 -121 -283 -121 -62 1 -82 6 -146 38 -68 33 -101 63 -356 316 -310 309 -310 308 -423 298 -71 -6 -111 -27 -139 -72 -27 -44 -38 -146 -20 -199 9 -28 108 -133 408 -434 220 -220 409 -417 424 -442 40 -68 61 -154 55 -219 -19 -200 -188 -369 -388 -388 -59 -6 -124 10 -204 49 -25 13 -177 156 -395 373 -392 390 -383 384 -498 372 -64 -7 -109 -32 -139 -77 -19 -28 -23 -46 -22 -114 0 -45 4 -89 7 -99 4 -9 194 -205 423 -435 243 -243 427 -436 442 -462 57 -101 71 -207 38 -302 -39 -115 -94 -184 -191 -243 -120 -73 -237 -80 -360 -23 -58 27 -103 68 -410 373 -190 188 -356 350 -370 359 -18 12 -47 16 -109 16 -99 0 -140 -19 -171 -81 -22 -43 -27 -148 -9 -196 5 -15 241 -260 523 -543 553 -555 551 -552 579 -686 29 -140 -70 -329 -218 -414 -61 -35 -175 -64 -219 -55 -61 12 -132 39 -175 65 -23 15 -487 471 -1030 1013 -672 672 -995 988 -1014 992 -54 14 -174 1 -204 -21 -65 -47 -93 -167 -58 -252 11 -25 146 -168 428 -450 226 -226 407 -412 401 -412 -5 0 -93 13 -195 30 -101 16 -272 43 -379 60 -416 66 -466 81 -559 170 -91 87 -112 136 -181 430 -23 96 -72 301 -110 455 -37 154 -100 415 -140 580 -187 776 -202 830 -300 1030 -65 134 -138 254 -226 372 -73 99 -678 710 -721 729 -18 8 -62 14 -98 14 -117 0 -178 -52 -191 -161 -13 -113 -16 -109 340 -469 364 -368 415 -432 531 -665 93 -188 112 -248 230 -740 53 -220 123 -510 156 -645 32 -135 93 -387 135 -560 42 -173 87 -344 100 -380 76 -206 266 -388 474 -454 80 -25 122 -33 515 -96 445 -72 557 -90 710 -116 83 -14 200 -28 260 -31 l110 -5 365 -363 c201 -199 375 -366 388 -369 12 -4 22 -11 22 -15 0 -11 141 -75 215 -97 48 -15 93 -19 230 -19 206 0 283 19 430 104 81 46 222 189 266 271 80 145 104 244 103 420 -1 143 -19 237 -62 331 l-29 65 87 27 c260 83 465 304 521 564 14 66 18 272 6 351 l-8 52 38 0 c109 1 271 61 389 145 225 161 342 449 306 754 -6 54 -19 120 -27 146 -9 26 -15 49 -12 51 2 2 38 13 80 24 86 23 211 79 244 110 12 11 26 20 30 20 12 0 145 138 173 178 41 61 89 170 110 251 28 109 28 312 0 427 -21 88 -68 193 -118 265 -49 70 -1615 1626 -1722 1711 -281 222 -403 296 -931 566 -523 267 -654 366 -1200 909 -295 294 -352 346 -385 354 -47 10 -109 10 -146 -1z"></path>
            <path id="pgo6FA6Kg"
                  d="M8820 3988 c-54 -37 -73 -71 -78 -138 -8 -111 29 -182 107 -209 24 -8 199 -11 581 -11 l547 0 44 23 c63 34 84 75 84 167 0 86 -20 130 -75 167 l-33 23 -572 0 -572 0 -33 -22z"></path>
            <path id="pTa0qZff0"
                  d="M6875 3189 c-31 -17 -755 -741 -771 -771 -20 -38 -18 -161 2 -205 9 -19 33 -45 53 -59 31 -21 47 -24 119 -24 53 0 93 5 110 14 15 8 192 180 394 383 404 406 397 396 385 511 -7 64 -32 109 -77 139 -28 19 -46 23 -114 23 -45 0 -90 -5 -101 -11z"></path>
            <path id="pbwhk3HXL"
                  d="M8482 3180 c-55 -34 -72 -73 -72 -168 0 -53 5 -93 14 -110 8 -15 180 -192 383 -394 408 -406 378 -384 511 -376 78 4 120 28 146 82 20 43 22 166 2 204 -18 33 -742 755 -773 771 -12 6 -57 11 -100 11 -60 0 -85 -5 -111 -20z"></path>
            <path id="pTJyKN0hE"
                  d="M7683 2849 c-24 -12 -52 -37 -65 -57 l-23 -37 0 -571 0 -570 25 -36 c39 -58 73 -73 166 -73 72 0 85 3 122 28 73 51 72 46 72 662 l0 542 -23 43 c-45 85 -176 118 -274 69z"></path>
        </g>
    </g>
    <g id="l51E3LCjb9FErLBDSaOmyKr" fill="rgb(255,255,255)" style="transform: none;">
        <g>
            <path id="prNfBlNsT"
                  d="M0 6500 l0 -6500 6500 0 6500 0 0 6500 0 6500 -6500 0 -6500 0 0 -6500z m5828 4960 c9 0 173 -157 366 -348 553 -549 681 -646 1205 -914 528 -270 650 -344 931 -566 107 -85 1673 -1641 1722 -1711 184 -264 184 -628 0 -892 -48 -69 -158 -173 -176 -166 -9 4 -13 1 -11 -6 10 -26 -151 -103 -275 -133 -41 -9 -77 -18 -79 -20 -2 -2 8 -36 22 -77 92 -266 34 -556 -153 -769 -120 -136 -345 -247 -502 -248 -20 0 -39 -4 -43 -9 -3 -5 2 -51 11 -103 33 -192 -9 -390 -116 -549 -60 -87 -153 -177 -238 -228 -78 -47 -219 -101 -265 -101 -16 0 -27 -3 -25 -7 2 -5 22 -47 46 -94 52 -105 74 -202 75 -329 2 -214 -69 -386 -223 -541 -108 -109 -210 -169 -360 -211 -72 -20 -312 -17 -385 6 -74 22 -215 86 -215 97 0 4 -10 11 -22 15 -13 3 -187 170 -388 370 l-366 364 -109 4 c-61 2 -177 16 -260 30 -151 26 -250 42 -710 116 -393 63 -435 71 -515 96 -208 66 -398 248 -474 454 -13 36 -58 207 -100 380 -42 173 -103 425 -135 560 -33 135 -103 425 -156 645 -109 455 -137 549 -205 692 -36 76 -45 104 -36 113 8 8 7 10 -4 6 -10 -4 -26 13 -52 57 -80 137 -170 241 -473 547 -263 264 -315 321 -324 355 -35 132 96 245 222 191 43 -19 648 -630 721 -729 88 -118 161 -238 226 -372 98 -200 113 -254 300 -1030 40 -165 103 -426 140 -580 38 -154 87 -359 110 -455 69 -294 90 -343 181 -430 93 -89 143 -104 564 -170 110 -18 316 -51 458 -74 141 -23 257 -40 257 -37 0 3 -204 211 -454 461 -392 392 -456 461 -467 498 -21 73 19 160 87 188 43 18 108 18 142 0 15 -8 81 -69 146 -135 109 -109 118 -121 105 -138 -13 -17 -13 -17 4 -4 17 13 87 -54 885 -850 647 -645 878 -871 912 -887 59 -28 154 -52 205 -52 63 0 164 28 220 60 61 35 144 120 173 176 72 141 68 312 -10 444 -12 19 -250 265 -529 545 -279 281 -513 523 -518 538 -27 70 2 158 62 196 43 26 131 29 167 5 14 -9 180 -171 370 -359 311 -309 352 -346 412 -374 171 -80 387 -37 516 103 127 138 150 358 55 526 -15 26 -199 219 -442 462 -229 230 -419 426 -423 435 -12 32 -8 113 7 143 33 64 114 99 188 80 37 -10 87 -57 397 -365 218 -217 370 -360 395 -373 87 -43 143 -55 234 -50 141 8 251 65 333 173 105 138 117 345 30 495 -15 25 -204 222 -424 442 -419 421 -427 430 -413 506 19 102 106 159 204 132 35 -9 85 -54 323 -291 256 -254 287 -283 356 -317 74 -36 79 -37 181 -36 86 0 117 4 163 23 32 12 62 19 68 16 6 -4 9 -3 8 2 -1 4 30 40 70 80 115 113 157 236 133 385 -24 152 12 112 -873 994 -819 817 -874 868 -1103 1021 -130 86 -265 162 -560 313 -316 161 -429 226 -590 334 -242 164 -335 245 -764 670 -323 321 -360 365 -361 428 -1 93 88 176 174 163 16 -3 35 -5 44 -5z m4172 -7503 c47 -31 74 -81 74 -137 0 -61 -28 -108 -83 -137 l-44 -23 -517 0 c-359 0 -527 3 -551 11 -49 17 -85 54 -99 104 -22 77 5 144 74 186 29 18 60 19 572 19 l541 0 33 -23z m-2950 -802 c64 -33 99 -114 79 -187 -9 -38 -57 -90 -377 -411 -202 -203 -379 -375 -394 -383 -44 -23 -127 -18 -169 10 -63 43 -89 140 -55 204 16 30 740 754 771 771 29 15 111 13 145 -4z m1618 1 c33 -18 755 -742 771 -773 16 -32 13 -100 -5 -139 -31 -65 -105 -95 -191 -79 -33 6 -84 52 -406 373 -203 202 -375 379 -383 394 -8 15 -14 51 -14 80 0 63 24 109 72 138 39 24 117 27 156 6z m-808 -339 c30 -16 51 -37 67 -67 l23 -43 0 -512 c0 -582 0 -581 -72 -631 -76 -53 -175 -34 -228 44 l-25 36 0 540 0 541 23 37 c25 41 91 78 138 78 17 0 50 -10 74 -23z"></path>
            <path id="pkyMORT3y" d="M3750 7475 c-41 -41 -72 -75 -69 -75 2 0 38 34 79 75 41 41 72 75 69 75 -2 0 -38 -34 -79 -75z"></path>
            <path id="pIEUngaLX" d="M9710 7018 c24 -27 45 -48 47 -48 8 0 0 9 -44 50 l-48 45 45 -47z"></path>
            <path id="pgE4Rxusp" d="M9780 6947 c0 -2 15 -16 33 -33 l32 -29 -29 33 c-28 30 -36 37 -36 29z"></path>
            <path id="poz3rSFA7" d="M9280 3747 c0 -2 15 -16 33 -33 l32 -29 -29 33 c-28 30 -36 37 -36 29z"></path>
        </g>
    </g>
</svg>