<?xml version="1.0" encoding="UTF-8"?>
<svg xmlns="http://www.w3.org/2000/svg" xmlns:xlink="http://www.w3.org/1999/xlink" width="100pt" height="100pt" viewBox="0 0 100 100" version="1.1" fill="#FFF">
    <g id="knock2">
        <path style=" stroke:none;"
              d="M 43.832031 88.382812 C 43.476562 88.277344 43.175781 88.015625 43.046875 87.691406 C 42.875 87.277344 42.890625 86.578125 43.070312 86.191406 C 43.214844 85.875 47.507812 81.554688 48.847656 80.375 C 50.875 78.578125 52.453125 77.5625 56.117188 75.691406 C 59.175781 74.125 60.222656 73.5 61.921875 72.199219 C 63.007812 71.375 74.960938 59.46875 75.269531 58.914062 C 75.5625 58.375 75.707031 57.578125 75.617188 57.070312 C 75.484375 56.371094 75.191406 55.863281 74.59375 55.277344 C 73.90625 54.609375 73.300781 54.347656 72.414062 54.347656 C 71.9375 54.355469 71.785156 54.390625 71.292969 54.636719 C 70.769531 54.890625 70.515625 55.125 68.554688 57.070312 C 66.167969 59.445312 66.167969 59.4375 65.300781 59.363281 C 64.753906 59.316406 64.445312 59.152344 64.230469 58.808594 C 64.023438 58.46875 63.9375 57.683594 64.078125 57.277344 C 64.144531 57.0625 64.90625 56.253906 67.214844 53.9375 C 68.90625 52.246094 70.363281 50.730469 70.476562 50.539062 C 70.785156 50.015625 70.945312 49.355469 70.898438 48.855469 C 70.753906 47.316406 69.453125 46.015625 67.914062 45.871094 C 67.460938 45.824219 66.960938 45.945312 66.347656 46.246094 C 66.152344 46.347656 64.984375 47.445312 63.308594 49.117188 C 60.292969 52.117188 60.363281 52.070312 59.476562 51.976562 C 58.984375 51.921875 58.636719 51.730469 58.40625 51.382812 C 58.261719 51.167969 58.230469 51.03125 58.238281 50.507812 C 58.238281 50.160156 58.269531 49.824219 58.292969 49.746094 C 58.324219 49.675781 59.785156 48.167969 61.546875 46.398438 C 63.414062 44.53125 64.832031 43.046875 64.945312 42.847656 C 65.382812 42.070312 65.492188 41.253906 65.238281 40.523438 C 64.9375 39.636719 64.515625 39.109375 63.769531 38.652344 C 62.847656 38.09375 61.945312 38.039062 61 38.476562 C 60.554688 38.683594 60.207031 39 57.847656 41.347656 C 56.382812 42.792969 55.109375 44.039062 55 44.109375 C 54.863281 44.199219 54.636719 44.230469 54.160156 44.230469 C 53.398438 44.230469 53.085938 44.085938 52.847656 43.609375 C 52.675781 43.277344 52.636719 42.46875 52.777344 42.101562 C 52.816406 41.984375 54.628906 40.101562 56.800781 37.921875 C 61.054688 33.652344 61.039062 33.675781 61.253906 32.644531 C 61.476562 31.570312 60.714844 30.117188 59.578125 29.460938 C 59.109375 29.191406 58.230469 28.96875 57.890625 29.039062 C 57.421875 29.128906 56.875 29.339844 56.546875 29.539062 C 56.371094 29.652344 52.800781 33.160156 48.625 37.332031 C 43.453125 42.5 40.96875 44.929688 40.824219 44.960938 C 40.40625 45.070312 39.484375 44.96875 39.253906 44.800781 C 38.753906 44.4375 38.539062 43.515625 38.808594 42.863281 C 38.890625 42.667969 39.929688 41.570312 42.101562 39.398438 C 43.839844 37.660156 45.230469 36.230469 45.183594 36.230469 C 45.144531 36.230469 44.46875 36.332031 43.683594 36.460938 C 42.90625 36.585938 41.59375 36.792969 40.769531 36.921875 C 37.570312 37.429688 37.183594 37.546875 36.46875 38.230469 C 35.769531 38.898438 35.609375 39.277344 35.078125 41.539062 C 34.898438 42.277344 34.523438 43.855469 34.230469 45.039062 C 33.945312 46.222656 33.460938 48.230469 33.152344 49.5 C 31.714844 55.46875 31.601562 55.882812 30.847656 57.421875 C 30.347656 58.453125 29.785156 59.375 29.109375 60.285156 C 28.546875 61.046875 23.890625 65.746094 23.5625 65.890625 C 23.421875 65.953125 23.085938 66 22.808594 66 C 21.90625 66 21.4375 65.601562 21.339844 64.761719 C 21.238281 63.890625 21.214844 63.921875 23.953125 61.152344 C 26.753906 58.324219 27.144531 57.832031 28.039062 56.039062 C 28.753906 54.59375 28.898438 54.128906 29.808594 50.347656 C 30.214844 48.652344 30.753906 46.421875 31.007812 45.382812 C 31.253906 44.347656 31.722656 42.40625 32.046875 41.078125 C 32.371094 39.746094 32.714844 38.429688 32.816406 38.152344 C 33.398438 36.570312 34.863281 35.167969 36.460938 34.660156 C 37.078125 34.46875 37.398438 34.40625 40.421875 33.921875 C 43.847656 33.371094 44.707031 33.230469 45.882812 33.03125 C 46.523438 32.921875 47.421875 32.816406 47.882812 32.792969 L 48.730469 32.753906 L 51.539062 29.960938 C 53.085938 28.429688 54.421875 27.144531 54.523438 27.125 C 54.617188 27.09375 54.691406 27.039062 54.691406 27.007812 C 54.691406 26.921875 55.777344 26.429688 56.347656 26.261719 C 56.714844 26.144531 57.0625 26.117188 58.117188 26.117188 C 59.699219 26.117188 60.292969 26.261719 61.421875 26.914062 C 62.046875 27.269531 63.128906 28.371094 63.46875 29 C 64.085938 30.117188 64.269531 30.875 64.261719 32.230469 C 64.253906 33.332031 64.117188 34.054688 63.785156 34.777344 L 63.5625 35.277344 L 64.230469 35.484375 C 66.230469 36.125 67.808594 37.824219 68.238281 39.824219 C 68.347656 40.332031 68.375 41.914062 68.285156 42.523438 L 68.222656 42.921875 L 68.515625 42.921875 C 69.355469 42.929688 70.601562 43.390625 71.507812 44.039062 C 73.238281 45.277344 74.136719 47.492188 73.863281 49.839844 C 73.816406 50.253906 73.714844 50.761719 73.652344 50.960938 C 73.585938 51.160156 73.539062 51.339844 73.5625 51.355469 C 73.578125 51.371094 73.855469 51.453125 74.175781 51.539062 C 74.839844 51.714844 75.800781 52.144531 76.054688 52.382812 C 76.144531 52.46875 76.253906 52.539062 76.285156 52.539062 C 76.375 52.539062 77.398438 53.601562 77.617188 53.90625 C 77.929688 54.375 78.300781 55.214844 78.460938 55.839844 C 78.675781 56.675781 78.675781 58.238281 78.460938 59.125 C 78.300781 59.800781 77.9375 60.609375 77.554688 61.160156 C 77.175781 61.699219 65.128906 73.667969 64.308594 74.324219 C 62.144531 76.03125 61.207031 76.601562 57.144531 78.675781 C 53.125 80.730469 52.117188 81.492188 47.914062 85.667969 C 45.644531 87.929688 45.207031 88.332031 44.953125 88.390625 C 44.59375 88.46875 44.117188 88.46875 43.832031 88.382812 Z M 43.832031 88.382812 "/>
        <path
              d="M 67.847656 30.675781 C 67.429688 30.390625 67.285156 30.128906 67.246094 29.617188 C 67.183594 28.761719 67.46875 28.214844 68.070312 28.007812 C 68.253906 27.945312 69.601562 27.921875 72.539062 27.921875 L 76.746094 27.921875 L 77.085938 28.101562 C 77.570312 28.363281 77.730469 28.675781 77.730469 29.382812 C 77.730469 30.046875 77.578125 30.382812 77.152344 30.667969 L 76.898438 30.847656 L 68.101562 30.847656 Z M 67.847656 30.675781 "/>
        <path
              d="M 52.882812 24.53125 C 52.644531 24.398438 47.078125 18.832031 46.953125 18.601562 C 46.800781 18.308594 46.816406 17.363281 46.96875 17.023438 C 47.039062 16.875 47.222656 16.675781 47.375 16.570312 C 47.617188 16.40625 47.738281 16.382812 48.292969 16.382812 C 48.699219 16.382812 49.007812 16.421875 49.136719 16.492188 C 49.253906 16.554688 50.617188 17.875 52.167969 19.4375 C 55.277344 22.5625 55.222656 22.484375 55.128906 23.371094 C 55.078125 23.863281 54.882812 24.207031 54.539062 24.4375 C 54.324219 24.585938 54.183594 24.617188 53.660156 24.617188 C 53.316406 24.617188 52.96875 24.578125 52.882812 24.53125 Z M 52.882812 24.53125 "/>
        <path
              d="M 65.246094 24.460938 C 64.824219 24.199219 64.691406 23.898438 64.691406 23.167969 C 64.691406 22.761719 64.730469 22.453125 64.800781 22.324219 C 64.863281 22.207031 66.183594 20.847656 67.746094 19.292969 C 70.882812 16.167969 70.652344 16.339844 71.675781 16.398438 C 72.277344 16.429688 72.601562 16.617188 72.800781 17.03125 C 72.953125 17.363281 72.96875 18.308594 72.816406 18.601562 C 72.675781 18.855469 67.109375 24.40625 66.871094 24.53125 C 66.777344 24.578125 66.429688 24.617188 66.101562 24.617188 C 65.636719 24.617188 65.445312 24.578125 65.246094 24.460938 Z M 65.246094 24.460938 "/>
        <path
              d="M 59.101562 21.914062 C 58.914062 21.824219 58.699219 21.628906 58.601562 21.476562 L 58.421875 21.191406 L 58.421875 12.414062 L 58.617188 12.136719 C 58.914062 11.691406 59.175781 11.578125 59.890625 11.578125 C 60.445312 11.578125 60.546875 11.601562 60.832031 11.792969 C 61.390625 12.183594 61.382812 12.144531 61.382812 16.882812 L 61.382812 21.054688 L 61.207031 21.382812 C 60.863281 22.039062 59.855469 22.292969 59.101562 21.914062 Z M 59.101562 21.914062 "/>
    
        <path
              d="M 28.847656 57.5 C 28.53125 57.183594 28.292969 56.921875 28.316406 56.921875 C 28.332031 56.921875 28.609375 57.183594 28.921875 57.5 C 29.238281 57.816406 29.476562 58.078125 29.453125 58.078125 C 29.4375 58.078125 29.160156 57.816406 28.847656 57.5 Z M 28.847656 57.5 "/>
        <path
              d="M 74.691406 53.984375 C 74.875 53.777344 75.039062 53.617188 75.054688 53.617188 C 75.117188 53.617188 75.054688 53.683594 74.714844 54 L 74.347656 54.347656 Z M 74.691406 53.984375 "/>
        <path
              d="M 75.230469 53.4375 C 75.230469 53.421875 75.347656 53.316406 75.484375 53.183594 L 75.730469 52.960938 L 75.507812 53.214844 C 75.292969 53.445312 75.230469 53.5 75.230469 53.4375 Z M 75.230469 53.4375 "/>
        <path
              d="M 71.382812 28.824219 C 71.382812 28.808594 71.5 28.699219 71.636719 28.570312 L 71.882812 28.347656 L 71.660156 28.601562 C 71.445312 28.832031 71.382812 28.882812 71.382812 28.824219 Z M 71.382812 28.824219 "/>
    </g>
</svg>
